<mxfile host="app.diagrams.net" modified="2022-02-08T09:04:42.188Z" agent="5.0 (Windows NT 10.0; Win64; x64) AppleWebKit/537.36 (KHTML, like Gecko) Chrome/97.0.4692.99 Safari/537.36" etag="jgOqx04qc3Ii_MXRoJ35" version="16.5.3" type="github">
  <diagram id="mN8qVYdgxtegw6tJVKb6" name="Page-1">
    <mxGraphModel dx="3802" dy="2274" grid="1" gridSize="10" guides="1" tooltips="1" connect="1" arrows="1" fold="1" page="1" pageScale="1" pageWidth="1169" pageHeight="827" math="0" shadow="0">
      <root>
        <mxCell id="0" />
        <mxCell id="1" parent="0" />
        <mxCell id="jxvRxyFt_n_RGlF-SfEk-25" value="" style="fillColor=none;strokeColor=#FFCE9F;dashed=1;verticalAlign=top;fontStyle=1;fontColor=#000000;strokeWidth=3;labelPosition=center;verticalLabelPosition=bottom;align=center;horizontal=1;rounded=1;" parent="1" vertex="1">
          <mxGeometry x="791" y="-653.75" width="100" height="293.5" as="geometry" />
        </mxCell>
        <mxCell id="jxvRxyFt_n_RGlF-SfEk-21" value="Application servers" style="fillColor=none;strokeColor=#FF8000;dashed=1;verticalAlign=top;fontStyle=1;fontColor=#000000;strokeWidth=2;labelPosition=center;verticalLabelPosition=bottom;align=center;horizontal=1;" parent="1" vertex="1">
          <mxGeometry x="605" y="-657.5" width="175" height="293.5" as="geometry" />
        </mxCell>
        <mxCell id="PiZZ3t89xysJXexjlCm5-118" value="AP-Northeast-2" style="sketch=0;outlineConnect=0;gradientColor=none;html=1;whiteSpace=wrap;fontSize=12;fontStyle=1;shape=mxgraph.aws4.group;grIcon=mxgraph.aws4.group_region;strokeColor=#000000;fillColor=none;verticalAlign=top;align=left;spacingLeft=30;fontColor=#000000;strokeWidth=2;" parent="1" vertex="1">
          <mxGeometry x="250.25" y="-736.75" width="759.75" height="502.75" as="geometry" />
        </mxCell>
        <mxCell id="mRodX8hJpUrA6hm6UzT5-10" value="VPC" style="sketch=0;outlineConnect=0;gradientColor=none;html=1;whiteSpace=wrap;fontSize=12;fontStyle=0;shape=mxgraph.aws4.group;grIcon=mxgraph.aws4.group_vpc;strokeColor=#879196;fillColor=none;verticalAlign=top;align=left;spacingLeft=30;fontColor=#879196;dashed=0;" parent="1" vertex="1">
          <mxGeometry x="263" y="-714" width="707" height="394" as="geometry" />
        </mxCell>
        <mxCell id="jxvRxyFt_n_RGlF-SfEk-5" value="Availability Zone" style="fillColor=none;strokeColor=#147EBA;dashed=1;verticalAlign=bottom;fontStyle=1;fontColor=#147EBA;strokeWidth=2;labelPosition=left;verticalLabelPosition=top;align=right;spacingRight=-100;spacing=0;" parent="1" vertex="1">
          <mxGeometry x="254" y="-459" width="736" height="120" as="geometry" />
        </mxCell>
        <mxCell id="mRodX8hJpUrA6hm6UzT5-80" value="AWS Cloud" style="points=[[0,0],[0.25,0],[0.5,0],[0.75,0],[1,0],[1,0.25],[1,0.5],[1,0.75],[1,1],[0.75,1],[0.5,1],[0.25,1],[0,1],[0,0.75],[0,0.5],[0,0.25]];outlineConnect=0;gradientColor=none;html=1;whiteSpace=wrap;fontSize=12;fontStyle=0;container=0;pointerEvents=0;collapsible=0;recursiveResize=0;shape=mxgraph.aws4.group;grIcon=mxgraph.aws4.group_aws_cloud_alt;strokeColor=#232F3E;fillColor=none;verticalAlign=top;align=left;spacingLeft=30;fontColor=#232F3E;dashed=0;flipV=0;flipH=0;strokeWidth=2;" parent="1" vertex="1">
          <mxGeometry x="150" y="-744" width="940" height="530" as="geometry" />
        </mxCell>
        <mxCell id="mRodX8hJpUrA6hm6UzT5-20" value="" style="outlineConnect=0;dashed=0;verticalLabelPosition=bottom;verticalAlign=top;align=center;html=1;shape=mxgraph.aws3.ec2;fillColor=#F58534;gradientColor=none;aspect=fixed;" parent="1" vertex="1">
          <mxGeometry x="414" y="-636" width="60" height="60" as="geometry" />
        </mxCell>
        <mxCell id="mRodX8hJpUrA6hm6UzT5-99" value="" style="outlineConnect=0;dashed=0;verticalLabelPosition=bottom;verticalAlign=top;align=center;html=1;shape=mxgraph.aws3.rds_db_instance_standby_multi_az;fillColor=#2E73B8;gradientColor=none;fontFamily=Helvetica;fontSize=14;fontColor=default;aspect=fixed;" parent="1" vertex="1">
          <mxGeometry x="811" y="-634.75" width="60" height="60" as="geometry" />
        </mxCell>
        <mxCell id="mRodX8hJpUrA6hm6UzT5-100" value="Standby" style="text;html=1;align=center;verticalAlign=middle;resizable=0;points=[];autosize=1;strokeColor=none;fillColor=none;fontSize=14;fontFamily=Helvetica;fontColor=default;" parent="1" vertex="1">
          <mxGeometry x="806" y="-574.75" width="70" height="20" as="geometry" />
        </mxCell>
        <mxCell id="mRodX8hJpUrA6hm6UzT5-101" value="Active" style="text;html=1;align=center;verticalAlign=middle;resizable=0;points=[];autosize=1;strokeColor=none;fillColor=none;fontSize=14;fontFamily=Helvetica;fontColor=default;" parent="1" vertex="1">
          <mxGeometry x="816" y="-384.75" width="50" height="20" as="geometry" />
        </mxCell>
        <mxCell id="XFIr4bRdqynwFGlcgYA7-4" style="edgeStyle=orthogonalEdgeStyle;rounded=0;orthogonalLoop=1;jettySize=auto;html=1;" parent="1" source="XFIr4bRdqynwFGlcgYA7-3" target="mRodX8hJpUrA6hm6UzT5-75" edge="1">
          <mxGeometry relative="1" as="geometry">
            <mxPoint x="59" y="-624" as="targetPoint" />
            <Array as="points">
              <mxPoint x="69" y="-670" />
            </Array>
          </mxGeometry>
        </mxCell>
        <mxCell id="XFIr4bRdqynwFGlcgYA7-3" value="" style="ellipse;shape=cloud;whiteSpace=wrap;html=1;" parent="1" vertex="1">
          <mxGeometry x="20" y="-717.5" width="90" height="60" as="geometry" />
        </mxCell>
        <mxCell id="PiZZ3t89xysJXexjlCm5-158" style="edgeStyle=orthogonalEdgeStyle;rounded=0;orthogonalLoop=1;jettySize=auto;html=1;dashed=1;fontSize=10;fontColor=#000000;strokeColor=#B8B8B8;" parent="1" source="mRodX8hJpUrA6hm6UzT5-72" target="mRodX8hJpUrA6hm6UzT5-81" edge="1">
          <mxGeometry relative="1" as="geometry" />
        </mxCell>
        <mxCell id="mRodX8hJpUrA6hm6UzT5-72" value="" style="sketch=0;outlineConnect=0;fontColor=#232F3E;gradientColor=none;strokeColor=#ffffff;fillColor=#232F3E;dashed=0;verticalLabelPosition=middle;verticalAlign=bottom;align=center;html=1;fontSize=10;fontStyle=1;spacing=3;shape=mxgraph.aws4.productIcon;prIcon=mxgraph.aws4.s3;whiteSpace=wrap;" parent="1" vertex="1">
          <mxGeometry x="290" y="-300" width="60" height="60" as="geometry" />
        </mxCell>
        <mxCell id="mRodX8hJpUrA6hm6UzT5-81" value="" style="sketch=0;outlineConnect=0;fontColor=#232F3E;gradientColor=none;strokeColor=#ffffff;fillColor=#232F3E;dashed=0;verticalLabelPosition=middle;verticalAlign=bottom;align=center;html=1;whiteSpace=wrap;fontSize=10;fontStyle=1;spacing=3;shape=mxgraph.aws4.productIcon;prIcon=mxgraph.aws4.glacier;" parent="1" vertex="1">
          <mxGeometry x="450" y="-300" width="60" height="60" as="geometry" />
        </mxCell>
        <mxCell id="PiZZ3t89xysJXexjlCm5-146" style="edgeStyle=orthogonalEdgeStyle;rounded=0;orthogonalLoop=1;jettySize=auto;html=1;entryX=0.039;entryY=0.463;entryDx=0;entryDy=0;entryPerimeter=0;fontSize=10;fontColor=#000000;strokeColor=#000000;" parent="1" source="mRodX8hJpUrA6hm6UzT5-73" target="PiZZ3t89xysJXexjlCm5-118" edge="1">
          <mxGeometry relative="1" as="geometry" />
        </mxCell>
        <mxCell id="PiZZ3t89xysJXexjlCm5-157" style="edgeStyle=orthogonalEdgeStyle;rounded=0;orthogonalLoop=1;jettySize=auto;html=1;dashed=1;fontSize=10;fontColor=#000000;strokeColor=#B8B8B8;" parent="1" source="mRodX8hJpUrA6hm6UzT5-73" target="mRodX8hJpUrA6hm6UzT5-72" edge="1">
          <mxGeometry relative="1" as="geometry">
            <Array as="points">
              <mxPoint x="198" y="-270" />
            </Array>
          </mxGeometry>
        </mxCell>
        <mxCell id="mRodX8hJpUrA6hm6UzT5-73" value="Amazon Cloudfront" style="sketch=0;outlineConnect=0;fontColor=#232F3E;gradientColor=none;strokeColor=#ffffff;fillColor=#232F3E;dashed=0;verticalLabelPosition=middle;verticalAlign=bottom;align=center;html=1;whiteSpace=wrap;fontSize=10;fontStyle=1;spacing=3;shape=mxgraph.aws4.productIcon;prIcon=mxgraph.aws4.cloudfront;" parent="1" vertex="1">
          <mxGeometry x="168" y="-548" width="60" height="90" as="geometry" />
        </mxCell>
        <mxCell id="XFIr4bRdqynwFGlcgYA7-5" style="edgeStyle=orthogonalEdgeStyle;rounded=0;orthogonalLoop=1;jettySize=auto;html=1;" parent="1" source="mRodX8hJpUrA6hm6UzT5-75" target="mRodX8hJpUrA6hm6UzT5-73" edge="1">
          <mxGeometry relative="1" as="geometry" />
        </mxCell>
        <mxCell id="mRodX8hJpUrA6hm6UzT5-75" value="Amazon Route 53" style="sketch=0;outlineConnect=0;fontColor=#232F3E;gradientColor=none;strokeColor=#ffffff;fillColor=#232F3E;dashed=0;verticalLabelPosition=middle;verticalAlign=bottom;align=center;html=1;whiteSpace=wrap;fontSize=10;fontStyle=1;spacing=3;shape=mxgraph.aws4.productIcon;prIcon=mxgraph.aws4.route_53;" parent="1" vertex="1">
          <mxGeometry x="168" y="-715.5" width="60" height="90" as="geometry" />
        </mxCell>
        <mxCell id="eOMwnjaS6-KJKkdp49Ax-9" value="" style="outlineConnect=0;dashed=0;verticalLabelPosition=bottom;verticalAlign=top;align=center;html=1;shape=mxgraph.aws3.auto_scaling;fillColor=#F58534;gradientColor=none;shadow=0;strokeColor=#BA6829;strokeWidth=1;aspect=fixed;" parent="1" vertex="1">
          <mxGeometry x="419" y="-538.75" width="50" height="50" as="geometry" />
        </mxCell>
        <mxCell id="jxvRxyFt_n_RGlF-SfEk-3" value="Availability Zone" style="fillColor=none;strokeColor=#147EBA;dashed=1;verticalAlign=bottom;fontStyle=1;fontColor=#147EBA;strokeWidth=2;labelPosition=left;verticalLabelPosition=top;align=right;spacing=0;spacingLeft=0;spacingRight=-100;spacingTop=0;" parent="1" vertex="1">
          <mxGeometry x="254" y="-674" width="736" height="120" as="geometry" />
        </mxCell>
        <mxCell id="PiZZ3t89xysJXexjlCm5-147" style="edgeStyle=orthogonalEdgeStyle;rounded=0;orthogonalLoop=1;jettySize=auto;html=1;entryX=0.184;entryY=0.463;entryDx=0;entryDy=0;entryPerimeter=0;fontSize=10;fontColor=#000000;strokeColor=#000000;" parent="1" source="jxvRxyFt_n_RGlF-SfEk-4" target="PiZZ3t89xysJXexjlCm5-118" edge="1">
          <mxGeometry relative="1" as="geometry">
            <Array as="points">
              <mxPoint x="350" y="-504" />
              <mxPoint x="350" y="-504" />
            </Array>
          </mxGeometry>
        </mxCell>
        <mxCell id="jxvRxyFt_n_RGlF-SfEk-4" value="" style="sketch=0;points=[[0,0,0],[0.25,0,0],[0.5,0,0],[0.75,0,0],[1,0,0],[0,1,0],[0.25,1,0],[0.5,1,0],[0.75,1,0],[1,1,0],[0,0.25,0],[0,0.5,0],[0,0.75,0],[1,0.25,0],[1,0.5,0],[1,0.75,0]];outlineConnect=0;fontColor=#232F3E;gradientColor=#945DF2;gradientDirection=north;fillColor=#5A30B5;strokeColor=#ffffff;dashed=0;verticalLabelPosition=bottom;verticalAlign=top;align=center;html=1;fontSize=12;fontStyle=0;aspect=fixed;shape=mxgraph.aws4.resourceIcon;resIcon=mxgraph.aws4.elastic_load_balancing;" parent="1" vertex="1">
          <mxGeometry x="277" y="-537" width="60" height="60" as="geometry" />
        </mxCell>
        <mxCell id="jxvRxyFt_n_RGlF-SfEk-6" value="" style="outlineConnect=0;dashed=0;verticalLabelPosition=bottom;verticalAlign=top;align=center;html=1;shape=mxgraph.aws3.ec2;fillColor=#F58534;gradientColor=none;aspect=fixed;" parent="1" vertex="1">
          <mxGeometry x="414" y="-444" width="60" height="60" as="geometry" />
        </mxCell>
        <mxCell id="PiZZ3t89xysJXexjlCm5-149" style="edgeStyle=orthogonalEdgeStyle;rounded=0;orthogonalLoop=1;jettySize=auto;html=1;entryX=-0.006;entryY=0.512;entryDx=0;entryDy=0;entryPerimeter=0;fontSize=10;fontColor=#000000;strokeColor=#000000;" parent="1" source="jxvRxyFt_n_RGlF-SfEk-8" target="jxvRxyFt_n_RGlF-SfEk-21" edge="1">
          <mxGeometry relative="1" as="geometry" />
        </mxCell>
        <mxCell id="jxvRxyFt_n_RGlF-SfEk-8" value="" style="sketch=0;points=[[0,0,0],[0.25,0,0],[0.5,0,0],[0.75,0,0],[1,0,0],[0,1,0],[0.25,1,0],[0.5,1,0],[0.75,1,0],[1,1,0],[0,0.25,0],[0,0.5,0],[0,0.75,0],[1,0.25,0],[1,0.5,0],[1,0.75,0]];outlineConnect=0;fontColor=#232F3E;gradientColor=#945DF2;gradientDirection=north;fillColor=#5A30B5;strokeColor=#ffffff;dashed=0;verticalLabelPosition=bottom;verticalAlign=top;align=center;html=1;fontSize=12;fontStyle=0;aspect=fixed;shape=mxgraph.aws4.resourceIcon;resIcon=mxgraph.aws4.elastic_load_balancing;" parent="1" vertex="1">
          <mxGeometry x="523.5" y="-537" width="60" height="60" as="geometry" />
        </mxCell>
        <mxCell id="jxvRxyFt_n_RGlF-SfEk-11" value="Front-end servers" style="fillColor=none;strokeColor=#FF8000;dashed=1;verticalAlign=top;fontStyle=1;fontColor=#000000;strokeWidth=2;labelPosition=center;verticalLabelPosition=bottom;align=center;horizontal=1;" parent="1" vertex="1">
          <mxGeometry x="394" y="-657.5" width="100" height="293.5" as="geometry" />
        </mxCell>
        <mxCell id="PiZZ3t89xysJXexjlCm5-150" style="edgeStyle=orthogonalEdgeStyle;rounded=0;orthogonalLoop=1;jettySize=auto;html=1;fontSize=10;fontColor=#000000;strokeColor=#B8B8B8;" parent="1" source="jxvRxyFt_n_RGlF-SfEk-18" target="PiZZ3t89xysJXexjlCm5-116" edge="1">
          <mxGeometry relative="1" as="geometry" />
        </mxCell>
        <mxCell id="PiZZ3t89xysJXexjlCm5-151" style="rounded=0;orthogonalLoop=1;jettySize=auto;html=1;fontSize=10;fontColor=#000000;strokeColor=#B8B8B8;" parent="1" source="jxvRxyFt_n_RGlF-SfEk-18" target="PiZZ3t89xysJXexjlCm5-117" edge="1">
          <mxGeometry relative="1" as="geometry" />
        </mxCell>
        <mxCell id="PiZZ3t89xysJXexjlCm5-154" style="edgeStyle=none;rounded=0;orthogonalLoop=1;jettySize=auto;html=1;entryX=0.19;entryY=0.817;entryDx=0;entryDy=0;entryPerimeter=0;fontSize=10;fontColor=#000000;strokeColor=#000000;" parent="1" source="jxvRxyFt_n_RGlF-SfEk-18" target="jxvRxyFt_n_RGlF-SfEk-25" edge="1">
          <mxGeometry relative="1" as="geometry" />
        </mxCell>
        <mxCell id="jxvRxyFt_n_RGlF-SfEk-18" value="" style="outlineConnect=0;dashed=0;verticalLabelPosition=bottom;verticalAlign=top;align=center;html=1;shape=mxgraph.aws3.ec2;fillColor=#F58534;gradientColor=none;aspect=fixed;" parent="1" vertex="1">
          <mxGeometry x="625" y="-636" width="60" height="60" as="geometry" />
        </mxCell>
        <mxCell id="jxvRxyFt_n_RGlF-SfEk-19" value="" style="outlineConnect=0;dashed=0;verticalLabelPosition=bottom;verticalAlign=top;align=center;html=1;shape=mxgraph.aws3.auto_scaling;fillColor=#F58534;gradientColor=none;shadow=0;strokeColor=#BA6829;strokeWidth=1;aspect=fixed;" parent="1" vertex="1">
          <mxGeometry x="630" y="-538.75" width="50" height="50" as="geometry" />
        </mxCell>
        <mxCell id="PiZZ3t89xysJXexjlCm5-152" style="edgeStyle=none;rounded=0;orthogonalLoop=1;jettySize=auto;html=1;fontSize=10;fontColor=#000000;strokeColor=#B8B8B8;" parent="1" source="jxvRxyFt_n_RGlF-SfEk-20" target="PiZZ3t89xysJXexjlCm5-117" edge="1">
          <mxGeometry relative="1" as="geometry" />
        </mxCell>
        <mxCell id="PiZZ3t89xysJXexjlCm5-153" style="edgeStyle=none;rounded=0;orthogonalLoop=1;jettySize=auto;html=1;fontSize=10;fontColor=#000000;strokeColor=#B8B8B8;" parent="1" source="jxvRxyFt_n_RGlF-SfEk-20" target="PiZZ3t89xysJXexjlCm5-116" edge="1">
          <mxGeometry relative="1" as="geometry" />
        </mxCell>
        <mxCell id="PiZZ3t89xysJXexjlCm5-155" style="edgeStyle=orthogonalEdgeStyle;rounded=0;orthogonalLoop=1;jettySize=auto;html=1;entryX=0.19;entryY=0.817;entryDx=0;entryDy=0;entryPerimeter=0;fontSize=10;fontColor=#000000;strokeColor=#000000;" parent="1" source="jxvRxyFt_n_RGlF-SfEk-20" target="jxvRxyFt_n_RGlF-SfEk-25" edge="1">
          <mxGeometry relative="1" as="geometry">
            <Array as="points">
              <mxPoint x="655" y="-374" />
              <mxPoint x="770" y="-374" />
              <mxPoint x="770" y="-414" />
            </Array>
          </mxGeometry>
        </mxCell>
        <mxCell id="jxvRxyFt_n_RGlF-SfEk-20" value="" style="outlineConnect=0;dashed=0;verticalLabelPosition=bottom;verticalAlign=top;align=center;html=1;shape=mxgraph.aws3.ec2;fillColor=#F58534;gradientColor=none;aspect=fixed;" parent="1" vertex="1">
          <mxGeometry x="625" y="-444" width="60" height="60" as="geometry" />
        </mxCell>
        <mxCell id="PiZZ3t89xysJXexjlCm5-156" style="edgeStyle=orthogonalEdgeStyle;rounded=0;orthogonalLoop=1;jettySize=auto;html=1;entryX=0.797;entryY=0.988;entryDx=0;entryDy=0;entryPerimeter=0;fontSize=10;fontColor=#000000;strokeColor=#B8B8B8;dashed=1;" parent="1" source="jxvRxyFt_n_RGlF-SfEk-23" target="jxvRxyFt_n_RGlF-SfEk-3" edge="1">
          <mxGeometry relative="1" as="geometry" />
        </mxCell>
        <mxCell id="PiZZ3t89xysJXexjlCm5-160" style="edgeStyle=orthogonalEdgeStyle;rounded=0;orthogonalLoop=1;jettySize=auto;html=1;dashed=1;fontSize=10;fontColor=#000000;strokeColor=#000000;" parent="1" source="jxvRxyFt_n_RGlF-SfEk-23" target="PiZZ3t89xysJXexjlCm5-159" edge="1">
          <mxGeometry relative="1" as="geometry">
            <Array as="points">
              <mxPoint x="841" y="-494" />
            </Array>
          </mxGeometry>
        </mxCell>
        <mxCell id="jxvRxyFt_n_RGlF-SfEk-23" value="" style="outlineConnect=0;dashed=0;verticalLabelPosition=bottom;verticalAlign=top;align=center;html=1;shape=mxgraph.aws3.rds_db_instance;fillColor=#2E73B8;gradientColor=none;fontFamily=Helvetica;fontSize=14;fontColor=default;aspect=fixed;" parent="1" vertex="1">
          <mxGeometry x="811" y="-444.75" width="60" height="60" as="geometry" />
        </mxCell>
        <mxCell id="WaCBdqwchcT2EgOetMC3-1" style="edgeStyle=orthogonalEdgeStyle;rounded=0;orthogonalLoop=1;jettySize=auto;html=1;" parent="1" source="jxvRxyFt_n_RGlF-SfEk-31" target="mRodX8hJpUrA6hm6UzT5-81" edge="1">
          <mxGeometry relative="1" as="geometry" />
        </mxCell>
        <mxCell id="jxvRxyFt_n_RGlF-SfEk-31" value="" style="sketch=0;outlineConnect=0;fontColor=#232F3E;gradientColor=none;strokeColor=#ffffff;fillColor=#232F3E;dashed=0;verticalLabelPosition=middle;verticalAlign=bottom;align=center;html=1;fontSize=10;fontStyle=1;spacing=3;shape=mxgraph.aws4.productIcon;prIcon=mxgraph.aws4.s3;whiteSpace=wrap;" parent="1" vertex="1">
          <mxGeometry x="610" y="-300" width="60" height="60" as="geometry" />
        </mxCell>
        <mxCell id="PiZZ3t89xysJXexjlCm5-87" value="" style="outlineConnect=0;dashed=0;verticalLabelPosition=bottom;verticalAlign=top;align=center;html=1;shape=mxgraph.aws3.rds_db_instance_read_replica;fillColor=#2E73B8;gradientColor=none;sketch=0;" parent="1" vertex="1">
          <mxGeometry x="905.5" y="-441" width="60" height="60" as="geometry" />
        </mxCell>
        <mxCell id="PiZZ3t89xysJXexjlCm5-116" value="" style="sketch=0;outlineConnect=0;fontColor=#232F3E;gradientColor=none;fillColor=#2E27AD;strokeColor=none;dashed=0;verticalLabelPosition=bottom;verticalAlign=top;align=center;html=1;fontSize=12;fontStyle=0;aspect=fixed;pointerEvents=1;shape=mxgraph.aws4.cache_node;" parent="1" vertex="1">
          <mxGeometry x="713" y="-630.75" width="50" height="50" as="geometry" />
        </mxCell>
        <mxCell id="PiZZ3t89xysJXexjlCm5-117" value="" style="sketch=0;outlineConnect=0;fontColor=#232F3E;gradientColor=none;fillColor=#2E27AD;strokeColor=none;dashed=0;verticalLabelPosition=bottom;verticalAlign=top;align=center;html=1;fontSize=12;fontStyle=0;aspect=fixed;pointerEvents=1;shape=mxgraph.aws4.cache_node;" parent="1" vertex="1">
          <mxGeometry x="708" y="-437.75" width="50" height="50" as="geometry" />
        </mxCell>
        <mxCell id="PiZZ3t89xysJXexjlCm5-148" style="edgeStyle=orthogonalEdgeStyle;rounded=0;orthogonalLoop=1;jettySize=auto;html=1;entryX=0;entryY=0.5;entryDx=0;entryDy=0;entryPerimeter=0;fontSize=10;fontColor=#000000;strokeColor=#000000;" parent="1" target="jxvRxyFt_n_RGlF-SfEk-8" edge="1">
          <mxGeometry relative="1" as="geometry">
            <mxPoint x="498" y="-507" as="sourcePoint" />
            <mxPoint x="400.044" y="-493.9767499999999" as="targetPoint" />
            <Array as="points">
              <mxPoint x="498" y="-507" />
            </Array>
          </mxGeometry>
        </mxCell>
        <mxCell id="PiZZ3t89xysJXexjlCm5-161" style="edgeStyle=orthogonalEdgeStyle;rounded=0;orthogonalLoop=1;jettySize=auto;html=1;dashed=1;fontSize=10;fontColor=#000000;strokeColor=#000000;" parent="1" source="PiZZ3t89xysJXexjlCm5-159" target="jxvRxyFt_n_RGlF-SfEk-31" edge="1">
          <mxGeometry relative="1" as="geometry">
            <Array as="points">
              <mxPoint x="980" y="-509" />
              <mxPoint x="980" y="-310" />
              <mxPoint x="640" y="-310" />
            </Array>
          </mxGeometry>
        </mxCell>
        <mxCell id="PiZZ3t89xysJXexjlCm5-159" value="&lt;b&gt;&lt;font style=&quot;font-size: 13px&quot;&gt;DB snapshot&lt;/font&gt;&lt;/b&gt;" style="sketch=0;outlineConnect=0;fontColor=#232F3E;gradientColor=none;fillColor=#3F8624;strokeColor=none;dashed=0;verticalLabelPosition=bottom;verticalAlign=top;align=center;html=1;fontSize=12;fontStyle=0;pointerEvents=1;shape=mxgraph.aws4.snapshot;rounded=1;" parent="1" vertex="1">
          <mxGeometry x="905.5" y="-538.75" width="60" height="60" as="geometry" />
        </mxCell>
        <mxCell id="WaCBdqwchcT2EgOetMC3-4" value="3-tier web service multi-az 구성&lt;br style=&quot;font-size: 19px&quot;&gt;&lt;div style=&quot;text-align: left ; font-size: 19px&quot;&gt;&lt;span style=&quot;font-size: 19px&quot;&gt;22.02.08 조원용&lt;/span&gt;&lt;/div&gt;" style="text;html=1;strokeColor=none;fillColor=none;align=center;verticalAlign=middle;whiteSpace=wrap;rounded=0;fontSize=19;" parent="1" vertex="1">
          <mxGeometry x="240" y="-190" width="302" height="90" as="geometry" />
        </mxCell>
      </root>
    </mxGraphModel>
  </diagram>
</mxfile>
